<svg width="24" height="25" viewBox="0 0 24 25" fill="none" xmlns="http://www.w3.org/2000/svg">
<path fill-rule="evenodd" clip-rule="evenodd" d="M20.5695 3.26535C20.9217 3.61751 20.9216 4.18845 20.5695 4.54058L4.54171 20.5671C4.18956 20.9193 3.61862 20.9192 3.26649 20.5671C2.91436 20.2149 2.91438 19.644 3.26654 19.2919L19.2943 3.2653C19.6465 2.91317 20.2174 2.9132 20.5695 3.26535ZM6.83171 5.07998C5.71153 5.07998 4.80344 5.98807 4.80344 7.10825C4.80344 8.22843 5.71153 9.13652 6.83171 9.13652C7.95189 9.13652 8.85997 8.22843 8.85997 7.10825C8.85997 5.98807 7.95189 5.07998 6.83171 5.07998ZM3 7.10825C3 4.99206 4.71551 3.27655 6.83171 3.27655C8.9479 3.27655 10.6634 4.99206 10.6634 7.10825C10.6634 9.22445 8.9479 10.94 6.83171 10.94C4.71551 10.94 3 9.22445 3 7.10825ZM17.0007 14.6959C15.8805 14.6959 14.9724 15.604 14.9724 16.7242C14.9724 17.8444 15.8805 18.7525 17.0007 18.7525C18.1209 18.7525 19.029 17.8444 19.029 16.7242C19.029 15.604 18.1209 14.6959 17.0007 14.6959ZM13.169 16.7242C13.169 14.608 14.8845 12.8925 17.0007 12.8925C19.1169 12.8925 20.8324 14.608 20.8324 16.7242C20.8324 18.8404 19.1169 20.5559 17.0007 20.5559C14.8845 20.5559 13.169 18.8404 13.169 16.7242Z" fill="url(#paint0_linear_3235_49741)"/>
<defs>
<linearGradient id="paint0_linear_3235_49741" x1="25.9448" y1="20.8312" x2="25.9448" y2="3.00122" gradientUnits="userSpaceOnUse">
<stop stop-color="#FC8507"/>
<stop offset="1" stop-color="#FFA218"/>
</linearGradient>
</defs>
</svg>
